<svg xmlns="http://www.w3.org/2000/svg" width="838" height="470" fill="none" viewBox="0 0 838 470">
  <path fill="#0C0C0C" fill-rule="evenodd" d="M100.418 0h635.604c11.205 0 20.289 9.083 20.289 20.288v424.09c0 11.204-9.084 20.288-20.289 20.288H100.418c-11.205 0-20.289-9.084-20.289-20.288V20.288C80.129 9.083 89.213 0 100.418 0Zm634.81 12.86H101.212l-.006.005a6.86 6.86 0 0 0-6.859 6.86V429.37c0 .754.616 1.37 1.37 1.37h645c.754 0 1.37-.616 1.37-1.37V19.719a6.86 6.86 0 0 0-6.859-6.859Z" clip-rule="evenodd"/>
  <path fill="#0C0C0C" d="M736.149 2.324c9.914 0 17.975 8.067 17.975 17.976v424.204c0 9.914-8.067 17.975-17.975 17.975H100.286c-9.915 0-17.976-8.067-17.976-17.975V20.305c0-9.914 8.067-17.975 17.976-17.975h635.863m0-1.277H100.286c-10.634 0-19.253 8.62-19.253 19.252V444.51c0 10.633 8.62 19.252 19.253 19.252h635.863c10.633 0 19.252-8.619 19.252-19.252V20.305c0-10.633-8.619-19.252-19.252-19.252Z"/>
  <path fill="#1B1B1B" d="M82.31 442.438h671.67v1.606c0 10.881-8.832 19.719-19.718 19.719H102.023c-10.88 0-19.718-8.833-19.718-19.719v-1.606h.005Z"/>
  <path fill="#080F10" d="M419.043 8.723a1.938 1.938 0 0 1-1.343-3.296 1.938 1.938 0 0 1 1.343-.583 1.938 1.938 0 0 1 1.343 3.296 1.938 1.938 0 0 1-1.343.583Z"/>
  <g style="mix-blend-mode:lighten">
    <path fill="#15413A" d="M418.686 6.921c-.362-.627-.265-1.254-.805-1.07-.513.173-.858.996-.363 1.853.483.834 1.398.811 1.743.397.311-.38-.212-.552-.575-1.18Z" opacity=".06"/>
    <path fill="#18463F" d="M418.652 6.939c-.346-.599-.254-1.197-.766-1.019-.489.167-.817.955-.345 1.767.46.8 1.335.776 1.663.38.299-.363-.201-.53-.547-1.128h-.005Z" opacity=".12"/>
    <path fill="#1A4B44" d="M418.623 6.962c-.328-.57-.242-1.14-.731-.972-.466.16-.777.909-.328 1.686.437.76 1.277.742 1.582.362.282-.345-.195-.506-.523-1.076Z" opacity=".19"/>
    <path fill="#1C5049" d="M418.594 6.985c-.311-.541-.23-1.082-.696-.927-.443.15-.742.863-.317 1.6.42.725 1.214.702 1.508.345.27-.328-.184-.477-.495-1.018Z" opacity=".25"/>
    <path fill="#1E554E" d="M418.565 7.002c-.293-.512-.218-1.03-.661-.875-.42.144-.702.817-.3 1.52.397.684 1.151.667 1.427.327.259-.31-.172-.454-.471-.966l.005-.006Z" opacity=".31"/>
    <path fill="#215A53" d="M418.537 7.025c-.282-.483-.208-.972-.622-.828-.397.138-.662.77-.282 1.432.374.65 1.088.633 1.352.311.242-.293-.167-.431-.443-.915h-.005Z" opacity=".38"/>
    <path fill="#235F58" d="M418.502 7.048c-.265-.455-.196-.915-.587-.782-.374.126-.621.73-.265 1.352.351.61 1.025.592 1.272.287.23-.282-.155-.402-.42-.863v.006Z" opacity=".44"/>
    <path fill="#25655E" d="M418.473 7.07c-.247-.425-.184-.857-.552-.73-.351.12-.587.685-.248 1.266.328.575.961.558 1.191.27.213-.264-.143-.381-.391-.806Z" opacity=".5"/>
    <path fill="#276A63" d="M418.444 7.088c-.23-.403-.172-.8-.512-.685-.328.11-.546.639-.23 1.186.311.535.898.517 1.116.253.202-.248-.138-.357-.368-.754h-.006Z" opacity=".56"/>
    <path fill="#2A6F68" d="M418.416 7.111c-.213-.374-.156-.748-.478-.638-.305.103-.506.592-.219 1.099.288.5.835.483 1.036.236.184-.23-.126-.328-.339-.702v.005Z" opacity=".62"/>
    <path fill="#2C746D" d="M418.387 7.134c-.196-.345-.144-.69-.443-.587-.282.098-.472.547-.202 1.019.265.46.771.449.956.218.172-.213-.115-.305-.317-.65h.006Z" opacity=".69"/>
    <path fill="#2E7972" d="M418.352 7.152c-.184-.316-.132-.633-.408-.54-.259.085-.432.506-.184.937.241.42.707.409.88.2.155-.194-.109-.28-.288-.597Z" opacity=".75"/>
    <path fill="#307E77" d="M418.324 7.175c-.167-.288-.121-.576-.369-.495-.236.08-.391.46-.166.851.224.386.644.374.799.184.144-.178-.098-.253-.264-.54Z" opacity=".81"/>
    <path fill="#33837C" d="M418.295 7.197c-.15-.259-.109-.518-.334-.443-.213.075-.357.415-.15.771.202.346.582.34.725.167.133-.16-.086-.23-.235-.489l-.006-.006Z" opacity=".88"/>
    <path fill="#358881" d="M418.266 7.215c-.132-.23-.098-.466-.299-.397-.19.063-.317.368-.132.685.178.31.517.3.644.15.115-.144-.081-.208-.213-.438Z" opacity=".94"/>
    <path fill="#378D86" d="M418.237 7.238c-.115-.201-.086-.409-.259-.345-.166.057-.276.322-.12.604.155.27.454.265.563.126.104-.126-.069-.178-.184-.385Z"/>
  </g>
  <g style="mix-blend-mode:lighten">
    <path fill="#15413A" d="M420.499 5.87c-.369-.587-.864-.593-1.099-.288-.213.282.005.437.282.874.276.438.351.772.73.622.363-.138.461-.616.087-1.214v.006Z" opacity=".06"/>
    <path fill="#18463F" d="M420.481 5.88c-.351-.563-.828-.575-1.053-.275-.207.27.006.42.271.845.264.42.339.743.708.605.345-.133.437-.593.08-1.168l-.006-.007Z" opacity=".12"/>
    <path fill="#1A4B44" d="M420.458 5.892c-.333-.54-.794-.552-1.007-.27-.195.26.006.409.259.811.253.403.328.714.679.581.334-.126.415-.57.075-1.122h-.006Z" opacity=".19"/>
    <path fill="#1C5049" d="M420.441 5.91c-.322-.519-.754-.53-.961-.26-.19.248 0 .392.248.777.241.386.316.685.65.558.316-.12.391-.545.063-1.075Z" opacity=".25"/>
    <path fill="#1E554E" d="M420.424 5.921c-.305-.489-.719-.506-.915-.247-.178.236 0 .374.236.742.23.368.305.656.621.535.299-.115.369-.53.058-1.024v-.006Z" opacity=".31"/>
    <path fill="#215A53" d="M420.407 5.933c-.288-.466-.685-.483-.869-.242-.173.225 0 .357.218.708.219.345.294.627.593.512.288-.11.351-.506.052-.978h.006Z" opacity=".38"/>
    <path fill="#235F58" d="M420.389 5.95c-.276-.443-.65-.46-.823-.23-.161.212 0 .345.208.673.207.328.282.598.569.49.271-.105.328-.485.046-.933Z" opacity=".44"/>
    <path fill="#25655E" d="M420.372 5.96c-.259-.42-.61-.436-.777-.218-.155.202 0 .328.196.64.195.31.27.57.541.471.259-.098.305-.46.04-.886V5.96Z" opacity=".5"/>
    <path fill="#276A63" d="M420.355 5.973c-.248-.392-.576-.415-.731-.213-.144.19 0 .31.184.604.184.293.259.547.512.45.242-.093.282-.439.035-.84Z" opacity=".56"/>
    <path fill="#2A6F68" d="M420.332 5.985c-.23-.369-.541-.392-.685-.202-.132.179 0 .294.173.57.172.276.247.518.483.426.224-.087.259-.42.029-.794Z" opacity=".62"/>
    <path fill="#2C746D" d="M420.314 6.001c-.212-.345-.5-.368-.638-.19-.127.167 0 .283.161.536.161.259.236.489.454.402.213-.08.242-.397.023-.748Z" opacity=".69"/>
    <path fill="#2E7972" d="M420.297 6.013c-.201-.322-.466-.35-.592-.184-.116.156 0 .265.149.5.15.237.225.461.432.38.195-.074.218-.373.017-.701l-.006.005Z" opacity=".75"/>
    <path fill="#307E77" d="M420.28 6.024c-.184-.293-.432-.328-.547-.172-.109.144 0 .247.138.466.139.22.213.431.403.357.184-.07.196-.351.006-.656v.005Z" opacity=".81"/>
    <path fill="#33837C" d="M420.263 6.042c-.167-.27-.392-.305-.501-.16-.098.132 0 .23.127.43.126.202.201.403.374.34.167-.063.172-.334 0-.61Z" opacity=".88"/>
    <path fill="#358881" d="M420.245 6.053c-.155-.247-.356-.282-.454-.155-.092.12 0 .213.115.397.115.184.19.374.345.316.15-.057.15-.31 0-.564l-.006.006Z" opacity=".94"/>
    <path fill="#378D86" d="M420.228 6.065c-.138-.225-.322-.26-.408-.144-.081.103 0 .201.103.368.104.167.173.345.317.293.138-.05.132-.287-.012-.512v-.005Z"/>
  </g>
  <path fill="#080808" d="M417.035 6.778c0-1.11.903-2.014 2.014-2.014 1.11 0 2.013.904 2.013 2.014 0 1.11-.903 2.014-2.013 2.014a2.018 2.018 0 0 1-2.014-2.014Zm3.878 0c0-1.03-.84-1.87-1.87-1.87-1.03 0-1.87.84-1.87 1.87 0 1.03.84 1.87 1.87 1.87 1.03 0 1.87-.84 1.87-1.87Z"/>
  <path fill="#4D6D69" d="M419.244 6.749a.202.202 0 0 0 .168-.313.199.199 0 0 0-.206-.085.2.2 0 0 0 .038.398Z" opacity=".3" style="mix-blend-mode:lighten"/>
  <path fill="#4D6D69" d="M419.244 6.6a.102.102 0 0 1-.069-.03.103.103 0 0 1-.029-.068.103.103 0 0 1 .029-.069.102.102 0 0 1 .069-.029c.026 0 .05.011.069.03a.103.103 0 0 1 .029.068.103.103 0 0 1-.029.069.102.102 0 0 1-.069.03Z" style="mix-blend-mode:screen"/>
  <path fill="#4D6D69" d="M418.813 7.077a.166.166 0 0 1-.154-.231.164.164 0 0 1 .154-.103.167.167 0 1 1 0 .334Z" opacity=".3" style="mix-blend-mode:lighten"/>
  <path fill="#4D6D69" d="M418.772 7.002c.014.001.027 0 .04-.004a.09.09 0 0 0 .059-.053.092.092 0 0 0 0-.08.09.09 0 0 0-.059-.054.095.095 0 0 0-.04-.004.1.1 0 0 0-.069.028.097.097 0 0 0-.028.069c0 .054.043.098.097.098Z" style="mix-blend-mode:screen"/>
  <path fill="url(#a)" d="M836.745 452.778H.765l-.76.8v10.213l.726.8H.719a521.665 521.665 0 0 0 74.945 5.408h686.159a522.21 522.21 0 0 0 74.974-5.408h.005l.749-.8v-10.213l-.806-.8Z"/>
  <path fill="url(#b)" d="M172.584 453.578H0v10.213h172.584v-10.213Z"/>
  <path fill="url(#c)" d="M418.905 453.578H172.181v10.213h246.724v-10.213Z"/>
  <path fill="url(#d)" d="M664.967 463.791h172.584v-10.213H664.967v10.213Z"/>
  <path fill="url(#e)" d="M418.778 463.791h246.39v-10.213h-246.39v10.213Z"/>
  <path fill="url(#f)" d="M172.59 453.578H0l.765-.8H172.59v.8Z"/>
  <path fill="url(#g)" d="M418.778 452.778H172.59v.8h246.188v-.8Z"/>
  <path fill="url(#h)" d="M664.967 452.778h171.778l.806.8H664.967v-.8Z"/>
  <path fill="url(#i)" d="M418.778 453.578h246.189v-.8H418.778v.8Z"/>
  <path fill="url(#j)" d="M172.59 464.591H.73l-.73-.8h172.59v.8Z"/>
  <path fill="url(#k)" d="M418.778 463.791H172.59v.8h246.188v-.8Z"/>
  <path fill="url(#l)" d="M664.967 463.791h172.584l-.748.8H664.967v-.8Z"/>
  <path fill="url(#m)" d="M418.778 464.591h246.189v-.799H418.778v.799Z"/>
  <path fill="url(#n)" d="M.72 464.591A521.782 521.782 0 0 0 75.663 470h686.159c25.087 0 50.145-1.807 74.974-5.409H.719.72Z"/>
  <path fill="url(#o)" d="M419.043 460.724h-52.298a7.946 7.946 0 0 1-7.946-7.946h60.244v7.946Z"/>
  <path fill="url(#p)" d="M419.043 460.724h52.297a7.946 7.946 0 0 0 7.947-7.946h-60.244v7.946Z"/>
  <path fill="url(#q)" d="M358.805 452.778a7.95 7.95 0 0 0 7.946 7.946h104.595a7.946 7.946 0 0 0 7.946-7.946H358.805Z" opacity=".5"/>
  <path fill="#AFB6BB" d="m478.567 452.778-.069.817c-.408 3.544-3.429 6.312-7.083 6.312H366.699a7.128 7.128 0 0 1-7.077-6.312l-.069-.817h-.794a7.95 7.95 0 0 0 7.946 7.946h104.716a7.946 7.946 0 0 0 7.946-7.946h-.8Z"/>
  <defs>
    <linearGradient id="a" x1="418.778" x2="418.778" y1="469.7" y2="452.542" gradientUnits="userSpaceOnUse">
      <stop stop-color="#1C1E1F"/>
      <stop offset=".45" stop-color="#2F3133"/>
      <stop offset="1" stop-color="#494D4F"/>
    </linearGradient>
    <linearGradient id="b" x1="0" x2="172.59" y1="458.687" y2="458.687" gradientUnits="userSpaceOnUse">
      <stop stop-color="#1F2224"/>
      <stop offset=".02" stop-color="#454A4C"/>
      <stop offset=".03" stop-color="#595E61"/>
      <stop offset=".06" stop-color="#414447"/>
      <stop offset=".07" stop-color="#36393B"/>
      <stop offset=".11" stop-color="#292C2D"/>
      <stop offset=".15" stop-color="#272829"/>
      <stop offset=".22" stop-color="#3B3C3E"/>
      <stop offset=".3" stop-color="#535659"/>
      <stop offset="1" stop-color="#888F93"/>
    </linearGradient>
    <linearGradient id="c" x1="172.181" x2="418.905" y1="458.687" y2="458.687" gradientUnits="userSpaceOnUse">
      <stop stop-color="#888F93"/>
      <stop offset=".65" stop-color="#9FA5AB"/>
    </linearGradient>
    <linearGradient id="d" x1="837.551" x2="664.967" y1="458.687" y2="458.687" gradientUnits="userSpaceOnUse">
      <stop stop-color="#1F2224"/>
      <stop offset=".02" stop-color="#454A4C"/>
      <stop offset=".03" stop-color="#595E61"/>
      <stop offset=".06" stop-color="#414447"/>
      <stop offset=".07" stop-color="#36393B"/>
      <stop offset=".11" stop-color="#292C2D"/>
      <stop offset=".15" stop-color="#272829"/>
      <stop offset=".22" stop-color="#3B3C3E"/>
      <stop offset=".3" stop-color="#535659"/>
      <stop offset="1" stop-color="#888F93"/>
    </linearGradient>
    <linearGradient id="e" x1="665.168" x2="418.778" y1="458.687" y2="458.687" gradientUnits="userSpaceOnUse">
      <stop stop-color="#888F93"/>
      <stop offset=".65" stop-color="#9FA5AB"/>
    </linearGradient>
    <linearGradient id="f" x1="0" x2="172.59" y1="453.181" y2="453.181" gradientUnits="userSpaceOnUse">
      <stop stop-color="#3A4044"/>
      <stop offset=".02" stop-color="#5A6064"/>
      <stop offset=".03" stop-color="#6F7579"/>
      <stop offset=".07" stop-color="#505558"/>
      <stop offset=".11" stop-color="#45494C"/>
      <stop offset=".15" stop-color="#444648"/>
      <stop offset=".23" stop-color="#575A5D"/>
      <stop offset=".3" stop-color="#6A6E72"/>
      <stop offset="1" stop-color="#9EA6AB"/>
    </linearGradient>
    <linearGradient id="g" x1="172.59" x2="418.778" y1="453.181" y2="453.181" gradientUnits="userSpaceOnUse">
      <stop stop-color="#9EA6AB"/>
      <stop offset=".65" stop-color="#AFB6BC"/>
    </linearGradient>
    <linearGradient id="h" x1="837.551" x2="664.967" y1="453.181" y2="453.181" gradientUnits="userSpaceOnUse">
      <stop stop-color="#3A4044"/>
      <stop offset=".02" stop-color="#5A6064"/>
      <stop offset=".03" stop-color="#6F7579"/>
      <stop offset=".07" stop-color="#505558"/>
      <stop offset=".11" stop-color="#45494C"/>
      <stop offset=".15" stop-color="#444648"/>
      <stop offset=".23" stop-color="#575A5D"/>
      <stop offset=".3" stop-color="#6A6E72"/>
      <stop offset="1" stop-color="#9EA6AB"/>
    </linearGradient>
    <linearGradient id="i" x1="664.967" x2="418.778" y1="453.181" y2="453.181" gradientUnits="userSpaceOnUse">
      <stop stop-color="#9EA6AB"/>
      <stop offset=".65" stop-color="#AFB6BC"/>
    </linearGradient>
    <linearGradient id="j" x1="0" x2="172.59" y1="464.194" y2="464.194" gradientUnits="userSpaceOnUse">
      <stop stop-color="#282C2E"/>
      <stop offset=".02" stop-color="#373B3D"/>
      <stop offset=".03" stop-color="#4B5052"/>
      <stop offset=".07" stop-color="#373A3C"/>
      <stop offset=".11" stop-color="#2F3233"/>
      <stop offset=".15" stop-color="#2E2F31"/>
      <stop offset=".27" stop-color="#414446"/>
      <stop offset=".3" stop-color="#484B4E"/>
      <stop offset="1" stop-color="#757B7E"/>
    </linearGradient>
    <linearGradient id="k" x1="172.59" x2="418.778" y1="464.194" y2="464.194" gradientUnits="userSpaceOnUse">
      <stop stop-color="#757B7E"/>
      <stop offset=".65" stop-color="#767A7E"/>
    </linearGradient>
    <linearGradient id="l" x1="837.551" x2="664.967" y1="464.194" y2="464.194" gradientUnits="userSpaceOnUse">
      <stop stop-color="#282C2E"/>
      <stop offset=".02" stop-color="#373B3D"/>
      <stop offset=".03" stop-color="#4B5052"/>
      <stop offset=".07" stop-color="#373A3C"/>
      <stop offset=".11" stop-color="#2F3233"/>
      <stop offset=".15" stop-color="#2E2F31"/>
      <stop offset=".27" stop-color="#414446"/>
      <stop offset=".3" stop-color="#484B4E"/>
      <stop offset="1" stop-color="#757B7E"/>
    </linearGradient>
    <linearGradient id="m" x1="664.967" x2="418.778" y1="464.194" y2="464.194" gradientUnits="userSpaceOnUse">
      <stop stop-color="#757B7E"/>
      <stop offset=".65" stop-color="#767A7E"/>
    </linearGradient>
    <linearGradient id="n" x1="418.755" x2="418.755" y1="469.908" y2="464.517" gradientUnits="userSpaceOnUse">
      <stop stop-color="#1C1E1F"/>
      <stop offset=".45" stop-color="#2F3133"/>
      <stop offset="1" stop-color="#494D4F"/>
    </linearGradient>
    <linearGradient id="o" x1="358.609" x2="392.552" y1="456.754" y2="456.754" gradientUnits="userSpaceOnUse">
      <stop stop-color="#1C1E1F"/>
      <stop offset=".26" stop-color="#343638"/>
      <stop offset=".45" stop-color="#494C4F"/>
      <stop offset="1" stop-color="#63686B"/>
    </linearGradient>
    <linearGradient id="p" x1="478.999" x2="439.953" y1="456.754" y2="456.754" gradientUnits="userSpaceOnUse">
      <stop stop-color="#1C1E1F"/>
      <stop offset=".26" stop-color="#343638"/>
      <stop offset=".45" stop-color="#494C4F"/>
      <stop offset="1" stop-color="#63686B"/>
    </linearGradient>
    <linearGradient id="q" x1="419.043" x2="419.043" y1="452.663" y2="459.124" gradientUnits="userSpaceOnUse">
      <stop stop-color="#1C1E1F"/>
      <stop offset=".45" stop-color="#2F3133"/>
      <stop offset="1" stop-color="#494D4F"/>
    </linearGradient>
  </defs>
</svg>
